<svg id="Component_1_1" data-name="Component 1 – 1" xmlns="http://www.w3.org/2000/svg" xmlns:xlink="http://www.w3.org/1999/xlink" width="1923.292" height="1111.759" viewBox="0 0 1923.292 1111.759">
  <defs>
    <style>
      .cls-1 {
        fill: none;
      }

      .cls-2 {
        clip-path: url(#clip-path);
      }

      .cls-3 {
        fill: url(#linear-gradient);
      }

      .cls-4 {
        clip-path: url(#clip-path-2);
      }

      .cls-5 {
        fill: url(#linear-gradient-2);
      }

      .cls-6 {
        fill: #fff;
      }

      .cls-7 {
        fill: #1798b5;
      }

      .cls-10, .cls-11, .cls-12, .cls-13, .cls-14, .cls-17, .cls-18, .cls-27, .cls-28, .cls-7, .cls-8, .cls-9 {
        fill-rule: evenodd;
      }

      .cls-8 {
        fill: #fba2b4;
      }

      .cls-9 {
        fill: #f7839a;
      }

      .cls-10 {
        fill: #e8617c;
      }

      .cls-11 {
        fill: #f26d88;
      }

      .cls-12 {
        fill: #162963;
      }

      .cls-13 {
        fill: #f2778f;
      }

      .cls-14 {
        fill: #369;
      }

      .cls-15 {
        clip-path: url(#clip-path-3);
      }

      .cls-16 {
        fill: url(#linear-gradient-3);
      }

      .cls-17 {
        fill: #192f6e;
      }

      .cls-18 {
        fill: #243c82;
      }

      .cls-19 {
        clip-path: url(#clip-path-4);
      }

      .cls-20 {
        fill: url(#linear-gradient-4);
      }

      .cls-21 {
        clip-path: url(#clip-path-5);
      }

      .cls-22 {
        fill: url(#linear-gradient-5);
      }

      .cls-23 {
        clip-path: url(#clip-path-6);
      }

      .cls-24 {
        fill: url(#linear-gradient-6);
      }

      .cls-25 {
        clip-path: url(#clip-path-7);
      }

      .cls-26 {
        fill: url(#linear-gradient-7);
      }

      .cls-27 {
        fill: #1bbeee;
      }

      .cls-28 {
        fill: #9ff;
      }
    </style>
    <clipPath id="clip-path">
      <path id="Path_46" data-name="Path 46" class="cls-1" d="M1238.13,48.17h686.492V1138.524H25.63V733.8c132.944-35.991,192.076,134.894,301.635-5.114C530.885,468.479,644.217,718.5,771.707,523.33c86.045-131.732,97.728-146.151,300.8-206.867S1238.13,48.17,1238.13,48.17" transform="translate(-25.63 -48.17)"/>
    </clipPath>
    <linearGradient id="linear-gradient" x1="0.5" y1="0.935" x2="0.5" y2="0.125" gradientUnits="objectBoundingBox">
      <stop offset="0" stop-color="#8cc2f7"/>
      <stop offset="1" stop-color="#e0f3fc"/>
    </linearGradient>
    <clipPath id="clip-path-2">
      <path id="Path_47" data-name="Path 47" class="cls-1" d="M1948.922,1159.929H25.63V830.777c146.7-35.042,145.649,95.946,237.586,96.748,34.281.3,69.127-2.193,147.2-60.209,36.681-27.307,111.535-73.008,176.294-66.19,80.678,8.5,133.392,54.686,199.7-10.033,93.208-90.952,43.82-39.455,46.767-153.662,2.391-93.991,59.906-163.352,160.526-198.288,205.784-71.475,618.022,79.553,610.513-390.973h344.7Z" transform="translate(-25.63 -48.17)"/>
    </clipPath>
    <linearGradient id="linear-gradient-2" x1="0.41" y1="0.833" x2="0.714" y2="-0.293" gradientUnits="objectBoundingBox">
      <stop offset="0" stop-color="#2abcbb"/>
      <stop offset="0.17" stop-color="#2ab4be"/>
      <stop offset="0.43" stop-color="#299ec6"/>
      <stop offset="0.75" stop-color="#287ad4"/>
      <stop offset="1" stop-color="#2759e0"/>
    </linearGradient>
    <clipPath id="clip-path-3">
      <path id="Path_11" data-name="Path 11" class="cls-1" d="M843.19,786.06l97,13.257L855.816,907.678,737.46,877.065Z" transform="translate(-737.46 -786.06)"/>
    </clipPath>
    <linearGradient id="linear-gradient-3" x1="0.5" y1="1.193" x2="0.5" y2="0.125" gradientUnits="objectBoundingBox">
      <stop offset="0" stop-color="#b0d8ff"/>
      <stop offset="0.05" stop-color="#b6dbff"/>
      <stop offset="0.47" stop-color="#ddeefe"/>
      <stop offset="0.8" stop-color="#f5fafe"/>
      <stop offset="1" stop-color="#fefefe"/>
    </linearGradient>
    <clipPath id="clip-path-4">
      <path id="Path_20" data-name="Path 20" class="cls-1" d="M1108.948,1000.995s-15.782,9.682-18.307,16.832,7.363,10.945,10.725,11.349,77.017,19.357,79.329,19.988,13.427-2.752,16.392-11.47-4.192-44.687-17.236-48.942-70.931,12.2-70.931,12.2" transform="translate(-1090.232 -988.049)"/>
    </clipPath>
    <linearGradient id="linear-gradient-4" x1="0.5" y1="0.99" x2="0.5" y2="0.159" gradientUnits="objectBoundingBox">
      <stop offset="0" stop-color="#1e9ef9"/>
      <stop offset="1" stop-color="#bae5ff"/>
    </linearGradient>
    <clipPath id="clip-path-5">
      <path id="Path_27" data-name="Path 27" class="cls-1" d="M1052.9,801.372c10.4,7.277,93.551,14.9,94.012,24.116.206,4.206-69.016,45.453-75.542,49.446s-18.726,6.944-29.032,3.369-76.563-28.677-80.471-34.224,4.093-18.378,4.093-18.378L1023.6,800.45Z" transform="translate(-960.789 -800.45)"/>
    </clipPath>
    <linearGradient id="linear-gradient-5" x1="0.513" y1="0.857" x2="0.476" y2="-0.156" xlink:href="#linear-gradient-3"/>
    <clipPath id="clip-path-6">
      <path id="Path_28" data-name="Path 28" class="cls-1" d="M861.209,751.328l10.448,48.446s1.369,12.1,9.221,14.725,14.732-2.525,14.732-2.525L1183.066,677.1s3.369-1.263,2.738-6.519c-.149-1.234-3.213-15.406-7.8-36.381Z" transform="translate(-861.209 -634.2)"/>
    </clipPath>
    <linearGradient id="linear-gradient-6" x1="0.532" y1="0.924" x2="0.472" y2="0.137" xlink:href="#linear-gradient-3"/>
    <clipPath id="clip-path-7">
      <path id="Path_29" data-name="Path 29" class="cls-1" d="M887.37,315.29l66.491,308.039,287-96.785L1196.679,335.91Z" transform="translate(-887.37 -315.29)"/>
    </clipPath>
    <linearGradient id="linear-gradient-7" x1="0.533" y1="0.85" x2="0.458" y2="0.046" gradientUnits="objectBoundingBox">
      <stop offset="0" stop-color="#243c82"/>
      <stop offset="1" stop-color="#1bc3f2"/>
    </linearGradient>
  </defs>
  <g id="Group_66" data-name="Group 66" transform="translate(-4251 -275)">
    <g id="Group_65" data-name="Group 65">
      <g id="Group_8" data-name="Group 8" class="cls-2" transform="translate(4251 275)">
        <rect id="Rectangle_17" data-name="Rectangle 17" class="cls-3" width="1898.993" height="1090.354" transform="translate(0)"/>
      </g>
      <g id="Group_9" data-name="Group 9" class="cls-4" transform="translate(4251 275)">
        <rect id="Rectangle_18" data-name="Rectangle 18" class="cls-5" width="1923.293" height="1111.759" transform="translate(0)"/>
      </g>
    </g>
    <g id="Layer_2" data-name="Layer 2" transform="translate(5170.044 613.453)">
      <g id="Layer_1" data-name="Layer 1">
        <path id="Path_1" data-name="Path 1" class="cls-6" d="M580.768,665.006c59.454-28.734,141.621-46.51,232.391-46.51s172.93,17.775,232.384,46.51c59.277,28.642,95.941,68.158,95.941,111.745s-36.678,83.1-95.956,111.745c-59.454,28.734-141.614,46.51-232.384,46.51S640.208,917.23,580.754,888.5c-59.27-28.649-95.934-68.158-95.934-111.745s36.664-83.1,95.948-111.745M813.145,616.83c-91.033,0-173.462,17.839-233.143,46.687-59.866,28.926-96.892,68.966-96.892,113.234S520.136,861.06,580,889.993c59.681,28.841,142.11,46.68,233.143,46.68s173.455-17.839,233.136-46.68c59.866-28.933,96.892-68.966,96.892-113.241s-37.026-84.309-96.892-113.234C986.6,634.683,904.171,616.83,813.145,616.83Z" transform="translate(-473.1 -179.304)"/>
        <path id="Path_2" data-name="Path 2" class="cls-7" d="M876.589,701.77c-131.017,0-237.229,51.333-237.229,114.646s106.212,114.66,237.229,114.66,237.236-51.333,237.236-114.66S1007.613,701.77,876.589,701.77" transform="translate(-554.582 -203.996)"/>
        <path id="Path_3" data-name="Path 3" class="cls-8" d="M226.207,138.271c-.419,2.525-1.681,12.207-.419,27.358s2.128,26.088,1.263,30.295,5.575,12.768,7.256,15.782.844,7.256.844,7.256L222.831,255.47s-.426,5.05,4.1,6.384,8.512,2.128,9.469,2,7.051.1,7.051.1-2.4,15.208-1.468,16.768,5.362,2.312,8.732,4a7.307,7.307,0,0,1,4,4.206c-7.937,15.328.355,38.544,21.719,47.162,5.228,2.128,38.3-7.547,47.524-9.079,0,0,38.3,32.827,40.608,38.927a16.616,16.616,0,0,1,.631,10.732s-12.207,26.514-11.349,33.245,14.278,9.689,14.278,9.689l65.859-61.866,50.709-62.263s-29.032-5.263-37.239-19.988-13.675-29.458-12.839-63.547-4.625-91.317-44.6-115.724C337.774,64.3,237.386,59.708,226.207,138.292" transform="translate(360.695 -21.68)"/>
        <path id="Path_4" data-name="Path 4" class="cls-9" d="M487.82,149.552a65.856,65.856,0,0,0-.88,9.93c18.648-1.787,24.634-14.9,38.083-26.486,18.7-16.158,33.94,1.419,33.94,1.419l-.234-6.008S533.8,113.633,531.024,113.4c-1.958-.163-22.223,5.781-34.7,9.774a76.69,76.69,0,0,0-8.512,26.386" transform="translate(100.93 -32.961)"/>
        <path id="Path_5" data-name="Path 5" class="cls-9" d="M223.359,361.937l2.383-1.376s38.3,32.827,40.608,38.927a16.616,16.616,0,0,1,.631,10.732s-12.207,26.514-11.349,33.245,14.293,9.689,14.293,9.689l65.859-61.866,50.709-62.263s-29.032-5.263-37.239-19.988-13.676-29.458-12.839-63.547c.128-5.228.106-11.009-.163-17.123L287.155,190s4.256,21.925-1.419,36.026c-2.256,5.6-20.769,40.941-31.352,30.082-4.107-4.206-5.05-5.15-3.476-10.2s-5.362,4.837-3.993,9.576,4.447,15.952,5.5,17.023S222.82,354.39,222.82,354.39Z" transform="translate(458.609 -55.229)"/>
        <path id="Path_6" data-name="Path 6" class="cls-10" d="M381.775,423.825l2.383-1.376s38.3,32.827,40.608,38.927c4.965,6.334,6.973,15.165,6.973,15.165,3.639-15.293-5.575-32.763-14.52-45.02-5.674-7.8-13.172-26.01-13.172-26.01l-14.186-2.61L385,406.262c-2.3,6.1-3.781,10.008-3.781,10.008Z" transform="translate(301.315 -117.117)"/>
        <path id="Path_7" data-name="Path 7" class="cls-11" d="M498.89,248.224c1.142,2.206,3.461,6.306,4.6,8.086a10.972,10.972,0,0,1,2.78.426c2.539.56,3.49,13.477,3.49,13.477l2.624-5.263c1,12.42,9.221,22.23-2.376,29.883,0,0,2.291-.567,7.448,1.858s4.2,8.441,4.2,8.441c8.1-9.93-2.085-21.989-1.951-34.1.177-16.669,21.989-27.011,39.963-33.536-1.092-.447-14.073,1.043-15.271.709-13.754-3.547-34.21,1.326-45.509,9.98" transform="translate(91.8 -68.901)"/>
        <path id="Path_8" data-name="Path 8" class="cls-12" d="M311.654,242.307c17.733,2.334,43.268,4.376,60.369-18.9,25.294-34.409,17.023-82.464-8.107-94.792-3.085-1.511-9.661-2.128-7.568-6.944,6.5-14.9.113-25.209-8.207-27.245-27.663-6.76-41.466,28.472-55.958,24.06-7.512-2.284-19.584-8.6-24.734-21.79-4.256-10.86-3.341-28.316,4.767-35.281,7.292-6.277,25.535-10.313,34.891-19.946C326.55,21.484,343.034,6.624,373.783,1.829c38.53-6.015,79.251,2.731,107.773,27.032,64.547,55,35.4,104.269,31.649,186.393-.943,20.535-37.544,3.078-43.183-9.221-5.185-11.349-6.987-25.294-9.306-39.225-2.944-17.676-7.568-41.566-21.662-42.821-46.666-4.178-41.452,73.158-9.895,103.559l-6.731,6.1,6.313,3.993c15.413,43.608-63.724,95.885-92.657,84.209-21.364-8.618-21.109-39.218-13.172-54.546a22.107,22.107,0,0,0-5.043-3.284c-3.362-1.681-6.738-3.348-7.689-4.923s1.475-16.733,1.475-16.733" transform="translate(292.96 0.002)"/>
        <path id="Path_9" data-name="Path 9" class="cls-13" d="M370.551,218.48s5.256,5.369,5.05,8.732-4,6.107-4.213,6.738,1.681,5.157,1.681,5.157,2.532-8.732,8.845-9.264c7.207-.6,13.4-7.6,8.937-13.988-3.887-5.575-12.413-8.1-12.413-8.1s-2.944-2-3.894-4.419c-2.518-6.448,2.894-10.32,9.93-9.618,16.57,1.66,15.6,17.853,10.782,30.55a61.552,61.552,0,0,1-6.313,11.782s13.151-11.15,12.732-27.876-9.363-22.514-13.569-23.457-13.477-.95-16.733,5.674-3.993,11.157-1.156,14.832,17.023,15.052,17.023,15.052.844,2.837-.95,3.05c-3.142.369-6.32-5.781-15.775-4.845" transform="translate(341.067 -53.564)"/>
        <path id="Path_10" data-name="Path 10" class="cls-14" d="M939.5,804.75l.518,2.731L854.9,918.006,751.6,891.57c-1.284,4.738-15.6,9.576-14.839-9.072Z" transform="translate(-454.022 -233.931)"/>
        <g id="Group_3" data-name="Group 3" class="cls-15" transform="translate(282.755 557.562)">
          <rect id="Rectangle_12" data-name="Rectangle 12" class="cls-16" width="202.728" height="121.618"/>
        </g>
        <path id="Path_12" data-name="Path 12" class="cls-8" d="M724.765,756.84s-87.657,23.84-115.015,21.1-60.809-13.676-60.809-13.676L510.426,760.9c-2.837-.248-5.554-.915-7.937,1.1-8.668,7.3-27.663,26.727-22.138,30.89a9.173,9.173,0,0,0,3.05,1.575s-5.894,9.994-6.526,13.569,2,7.051,3.476,6.838,2.419,3.369,10.313-6S507.5,789.305,507.5,789.305c4.7.277,33.777.794,36.175,3.894,1.468,1.887,10.413,11.675,10.413,11.675l-25.145,4.731s-15.669.106-18.442,2.419-9.469,7.157-6.384,10.313,3.469,7.575,11.15,8.207,41.849-3.05,41.849-3.05c21.194,7.7,30.6,2.717,49.233-8.306,42.02,0,87.366,5.419,129.527,8.334,0,0,8.292-1.185,12.058-4.866s7.937-25.776.135-43.005a44.686,44.686,0,0,0-23.329-22.79" transform="translate(-84.297 -220.004)"/>
        <path id="Path_13" data-name="Path 13" class="cls-9" d="M476.785,842.494c1.639,2.39,3.476,4.639,8.781,5.072,7.682.631,41.849-3.05,41.849-3.05,21.194,7.7,30.6,2.717,49.233-8.306,42.02,0,87.366,5.419,129.527,8.334,0,0,8.292-1.185,12.058-4.866,2.461-2.383,5.043-12.5,4.44-24.017-4.164-.532-10.363-.411-19.279,1.688-20.62,4.838-35.558,2.944-52.184,5.469s-63.129-1.582-69.328-1.163a52.1,52.1,0,0,0-13.151,3.156l-9.576,4.213,1.795-5.476s-27.145,9.93-32.721,11.157-22.7,1.887-29.67,3.256-8.42-4.1-8.42-4.1a12.7,12.7,0,0,1-2.624,5.887c-2.312,2.951-9.264,2.426-10.42,2.213Z" transform="translate(-54.795 -237.025)"/>
        <path id="Path_14" data-name="Path 14" class="cls-9" d="M732.05,821.718c.759,1.773,2.078,2.993,2.965,2.837,1.475-.213,2.419,3.369,10.313-6s16.832-19.563,16.832-19.563c4.7.277,33.777.794,36.175,3.894,1.468,1.887,10.413,11.675,10.413,11.675s.936-.234,3.547-.816,13.782-4.05,13.782-4.05l-9.682-7.994s-11.257-9.051-24.62-10.207-30.209-1.234-30.209-1.234-21.279,25.62-22.776,28.2c-1.27,2.128-4.965,2.979-6.738,3.263" transform="translate(-337.707 -229.719)"/>
        <path id="Path_15" data-name="Path 15" class="cls-17" d="M458.645,707.58s-26.514,22.514-36.4,27.351a96.045,96.045,0,0,1-14.9,5.838c-3.369.979-3.213,3.717-3.128,3.7a25,25,0,0,1,3.752-.88c14.4,11.349,29.5,46.814,15.307,69.832,0,0,22.62.213,39.345-4.419S480.407,801,480.407,801s21.783-57.234,5.37-78.734-27.131-14.69-27.131-14.69" transform="translate(226.016 -205.387)"/>
        <path id="Path_16" data-name="Path 16" class="cls-18" d="M164.908,380.964s-13.888-1.681-26.514,9.675c-6.5,5.852-90.572,129.96-96.58,105.63-1.6-6.5,6.894-28.131,6.894-28.131s2.128-3.873,1.667-7.334-.709-6.065-3.6-9.221-7.27-7.568-7.27-7.568S-1.631,495.085.05,567.86,17.726,711.786,17.726,711.786L58.965,884.021H327.34V536.651c0-47.311-89.2-141.585-162.432-155.687" transform="translate(673.616 -110.715)"/>
        <path id="Path_17" data-name="Path 17" class="cls-17" d="M231.777,687.036c5,36.678,10.852,62.71,10.852,62.71l8.512,35.466,35.551-6.582L387.868,512s-21.677-4.837-45.658,13.888S309.8,598.692,308.971,605s-7.157,13.044-12.626,21.464-14.732,44.4-15.364,55.972-24.195,28.372-32.628,34.926-16.4-29.514-16.584-30.344" transform="translate(450.954 -148.668)"/>
        <path id="Path_18" data-name="Path 18" class="cls-18" d="M337.049,495.686c40.814-2.128,101.431.426,112.355,73.648S428.358,770.905,384.594,837.4s-63.966,79.861-63.966,79.861H48.785s-2.128-59.447,1.475-61.341,55.553-4.845,55.553-4.845l12.831,3.369s-1.05-8.838,2.525-12.413,12.626-5.05,12.626-5.05-4-7.157,1.05-17.889,10.306-12.2,10.306-12.2-6.15-6.731-.468-15.995,12.888-9.682,12.888-9.682-.844.851,2.731-6.519a19.981,19.981,0,0,1,10.945-9.675s15.988-31.777,24.826-37.246,10.945-9.682,10.945-9.682,19.357-35.345,23.145-53.858-3.369-23.57,7.15-39.984,11.349-29.032,11.349-29.032c5.036-47.829,36.246-96.842,88.38-99.53" transform="translate(515.235 -143.958)"/>
        <path id="Path_19" data-name="Path 19" class="cls-17" d="M444.692,572.877A116.387,116.387,0,0,1,449.1,591.9c10.945,73.222-21.045,201.572-64.81,268.063s-63.966,79.861-63.966,79.861H48.485s-.17-4.965-.333-12.058c21.762-1.029,86.649-4.533,128.513-11.455,50.921-8.412,57.653-27.77,57.653-27.77l-11.349-19.364,43.346,8.845-7.575-24.414c62.547-11.462,93.523-77.187,118.668-128.768L330.28,713.491c59.582-24.925,108.1-70.931,114.433-140.621" transform="translate(515.535 -166.526)"/>
        <g id="Group_4" data-name="Group 4" class="cls-19" transform="translate(131.915 700.835)">
          <rect id="Rectangle_13" data-name="Rectangle 13" class="cls-20" width="111.936" height="65.228" transform="translate(-2.117 -3.468)"/>
        </g>
        <path id="Path_21" data-name="Path 21" class="cls-8" d="M1046.508,983.519s-119.093,9.051-206.622-11.157-112.78-40.431-112.78-40.431-4-6.1-17.882-7.363S656.2,920.78,656.2,920.78L646.1,926.887l-2.951,3.362L611.8,949.4s-4.1,3.156-5.469,10.413S602.65,977.7,602.65,977.7s1.263,7.157,4.731,7.682,7.8-1.894,7.8-1.894-.95,7.256,3.05,12.307,11.15,15.364,11.15,15.364,11.157-1.475,12.207-8.732-4-12.768-4-12.768l5.263-6.838,23.776,1.05,7.242,8.71-19.357-.426a12.485,12.485,0,0,0-6.206,10.42c-.532,7.682-.418,16.513-.418,16.513s7.888,11.157,8.512,11.576,7.157,2.525,7.157,2.525,7.15-4.525,7.051-7.263a37.855,37.855,0,0,1,.418-6.1s5.157-.418,12.938,2.525c36.558,13.839,43.02,13.661,82.28,13.966,6.717.05,19.676,4.653,27.77,4.653h259.019Z" transform="translate(-467.752 -267.66)"/>
        <path id="Path_22" data-name="Path 22" class="cls-9" d="M836.63,1067.211c.631.418,7.157,2.525,7.157,2.525s7.15-4.525,7.051-7.263a37.859,37.859,0,0,1,.418-6.1s5.157-.419,12.938,2.525c36.558,13.839,43.02,13.661,82.28,13.966,6.717.05,19.676,4.653,27.77,4.653h94.09s-39.558-13.392-52.815-16.548-54.078-9.469-54.078-9.469l2.312-3.993s-15.569-1.688-24.613,1.05-23.145,9.888-30.933,9.888-43.133-9.044-57.021-10.938-13.477-1.263-15.357,4.419.8,15.286.8,15.286" transform="translate(-650.805 -304.219)"/>
        <path id="Path_23" data-name="Path 23" class="cls-9" d="M1118.618,987.643s1.263,7.157,4.731,7.682c2.965.447,6.547-1.248,7.526-1.752a14.339,14.339,0,0,1,1.156-1.5s8.1-11.888,14.938-19.045,11.469-8.838,13.782-9.256,4.632,0,14.626,2.632,27.663,6.625,27.663,6.625l-2.128-3.156s-22.095-12.519-33.664-14.725c-11.952-2.284-26.018,10.5-35.983,16.619-5.157,9.327-4.483,20.435-12.675,15.874" transform="translate(-983.72 -277.572)"/>
        <path id="Path_24" data-name="Path 24" class="cls-9" d="M1100.913,1020.137c3.667,4.965,7.59,10.64,7.59,10.64s11.157-1.475,12.207-8.732-4-12.768-4-12.768l5.263-6.838,23.776,1.05,7.256,8.682,26.954-1.887-7.15-6.1-20-11.257L1122.2,988.19s-21.279,15.463-22.62,19.861,1.3,12.058,1.3,12.058" transform="translate(-948.812 -287.255)"/>
        <path id="Path_25" data-name="Path 25" class="cls-12" d="M872.077,274.314c-16.74-1.553-9.491,17.733-8.214,26.72l85,394.1s1.369,12.1,9.221,14.725,14.732-2.525,14.732-2.525l287.455-134.875s3.369-1.263,2.738-6.519-54.283-246.074-54.283-246.074c-4.2-11.59-13.087-12.356-24.046-12.888Z" transform="translate(-861.209 -79.713)"/>
        <path id="Path_26" data-name="Path 26" class="cls-14" d="M1052.249,806.058c10.129,7.093,90.21,12.768,94.785,21.669a2.483,2.483,0,0,1,.085,2.185,12.546,12.546,0,0,1-2.248,2.525c-10.64,9.569-68.25,43.58-74.151,47.19-6.519,4-18.726,6.951-29.039,3.369s-76.556-28.677-80.464-34.224,4.086-18.378,4.086-18.378l57.653-25.244Z" transform="translate(-815.622 -234.047)"/>
        <g id="Group_5" data-name="Group 5" class="cls-21" transform="translate(145.129 567.769)">
          <rect id="Rectangle_14" data-name="Rectangle 14" class="cls-22" width="189.159" height="81.429" transform="translate(-2.833 0.007)"/>
        </g>
        <g id="Group_6" data-name="Group 6" class="cls-23" transform="translate(77.21 449.846)">
          <rect id="Rectangle_15" data-name="Rectangle 15" class="cls-24" width="325.219" height="182.931" transform="translate(0.007)"/>
        </g>
        <g id="Group_7" data-name="Group 7" class="cls-25" transform="translate(29.835 223.64)">
          <rect id="Rectangle_16" data-name="Rectangle 16" class="cls-26" width="353.492" height="308.039" transform="translate(0)"/>
        </g>
        <path id="Path_30" data-name="Path 30" class="cls-27" d="M1071.141,481.65l19.783,83.741L928.9,620.937,905.34,506.9Z" transform="translate(-722.981 -140.009)"/>
        <path id="Path_31" data-name="Path 31" class="cls-14" d="M1243.483,394.666l-33.884,1.085-269.488,8.583-2.9-13.427,304.337-4.6Z" transform="translate(-895.508 -112.295)"/>
        <path id="Path_32" data-name="Path 32" class="cls-27" d="M1244.731,605.21l14.449,65.42-105.361,35.529-16.4-73.6Z" transform="translate(-1053.216 -175.927)"/>
        <path id="Path_33" data-name="Path 33" class="cls-28" d="M1054.1,464l1.894,7.157L936.478,488.3l-1.468-9.675Z" transform="translate(-709.484 -134.878)"/>
        <path id="Path_34" data-name="Path 34" class="cls-28" d="M1134.211,371.849l1.312,8.313-59.965.951-1.419-9.363Z" transform="translate(-887.023 -108.062)"/>
        <path id="Path_35" data-name="Path 35" class="cls-14" d="M1271.5,626.26l1.993,9.051-59.121,16.094L1211.74,641.2Z" transform="translate(-1120.245 -182.046)"/>
        <path id="Path_36" data-name="Path 36" class="cls-14" d="M1267.533,644.8l2,9.051-59.022,16.491-2.632-10.207Z" transform="translate(-1113.548 -187.435)"/>
        <path id="Path_37" data-name="Path 37" class="cls-14" d="M1263.46,663.35l2,9.044-58.816,17.25-2.625-10.2Z" transform="translate(-1106.737 -192.827)"/>
        <path id="Path_38" data-name="Path 38" class="cls-14" d="M1259.4,681.88l1.993,9.051-58.6,17.357-2.624-10.2Z" transform="translate(-1099.943 -198.214)"/>
        <path id="Path_39" data-name="Path 39" class="cls-28" d="M1343.342,335.469l1.319,8.313-59.965-2.419L1283.27,332Z" transform="translate(-1242.15 -96.507)"/>
        <path id="Path_40" data-name="Path 40" class="cls-27" d="M1290.013,470.23l2,9.051-109.837,11.675-1.887-10.278Z" transform="translate(-1116.458 -136.689)"/>
        <path id="Path_41" data-name="Path 41" class="cls-27" d="M1301.361,416.24l1.993,9.051-110.78,6.256-1.894-10.462Z" transform="translate(-1135.168 -120.995)"/>
        <path id="Path_42" data-name="Path 42" class="cls-14" d="M1103.436,622.36l2,9.051-58.795,17.6-2.632-10.2Z" transform="translate(-835.829 -180.912)"/>
        <path id="Path_43" data-name="Path 43" class="cls-28" d="M1046.814,373.068l1.043,6.6-47.609.759-1.128-7.434Z" transform="translate(-746.918 -108.423)"/>
        <path id="Path_44" data-name="Path 44" class="cls-27" d="M1269.168,519.38l11.009,53.61-104.985,25.535-13.782-64.072Z" transform="translate(-1091.229 -150.977)"/>
        <path id="Path_45" data-name="Path 45" class="cls-12" d="M437.221,234.5l22.833,47.729s2.589,1.092,2.837-1.745c.872-9.271-12.143-33.557-3.61-35.87,2.575-.709,77.769-28.1,77.769-28.1s10.235-6.5,10.228-8.2-4.256-1.511-4.256-1.511l-92,31.642s-3.483-1.419-6.519-2.944-5.5-1.8-6.043-1.674a4.405,4.405,0,0,0-1.255.674" transform="translate(147.618 -60.111)"/>
      </g>
    </g>
  </g>
</svg>
